<svg width="18" height="18" viewBox="0 0 18 18" fill="none" xmlns="http://www.w3.org/2000/svg">
<path d="M13.8314 0.213301L16.9107 2.41349C17.1428 2.58533 17.2559 2.78172 17.2498 3.00266C17.2498 3.22974 17.1367 3.42613 16.9107 3.59183L13.8222 5.78282C13.5473 5.99148 13.2999 6.04979 13.0799 5.95773C12.86 5.86567 12.75 5.64473 12.75 5.29491V4.18689C6.62192 5.21744 2 10.3844 2 16.5504V18H0V16.5504C0 9.23092 5.55502 3.21448 12.75 2.16293V0.701209C12.75 0.345251 12.86 0.124311 13.0799 0.0383902C13.2999 -0.0475307 13.5504 0.0107728 13.8314 0.213301Z" fill="#01131E"/>
</svg>
