<svg width="16" height="16" viewBox="0 0 16 16" fill="none" xmlns="http://www.w3.org/2000/svg">
<path d="M3.66612 14C2.30549 14 1.59998 13.2866 1.59998 11.9111V4.08891C1.59998 2.71344 2.30549 2 3.66612 2H12.3338C13.6945 2 14.4 2.71344 14.4 4.08891V11.9111C14.4 13.2801 13.6945 14 12.3338 14H3.66612ZM3.64722 12.7402H12.3401C12.8693 12.7402 13.1653 12.4574 13.1653 11.8982V5.95929C13.1653 5.39368 12.8693 5.1173 12.3401 5.1173H3.64722C3.12438 5.1173 2.83462 5.39368 2.83462 5.95929V11.8982C2.83462 12.4574 3.12438 12.7402 3.64722 12.7402ZM6.78423 7.34762C6.56376 7.34762 6.48816 7.27692 6.48816 7.04553V6.67274C6.48816 6.44135 6.56376 6.37065 6.78423 6.37065H7.15588C7.38265 6.37065 7.45824 6.44135 7.45824 6.67274V7.04553C7.45824 7.27692 7.38265 7.34762 7.15588 7.34762H6.78423ZM8.85037 7.34762C8.6236 7.34762 8.54801 7.27692 8.54801 7.04553V6.67274C8.54801 6.44135 8.6236 6.37065 8.85037 6.37065H9.21572C9.44249 6.37065 9.51809 6.44135 9.51809 6.67274V7.04553C9.51809 7.27692 9.44249 7.34762 9.21572 7.34762H8.85037ZM10.9102 7.34762C10.6834 7.34762 10.6078 7.27692 10.6078 7.04553V6.67274C10.6078 6.44135 10.6834 6.37065 10.9102 6.37065H11.2756C11.5023 6.37065 11.5779 6.44135 11.5779 6.67274V7.04553C11.5779 7.27692 11.5023 7.34762 11.2756 7.34762H10.9102ZM4.72438 9.41725C4.50391 9.41725 4.42832 9.34655 4.42832 9.11516V8.74237C4.42832 8.51098 4.50391 8.44028 4.72438 8.44028H5.09604C5.32281 8.44028 5.3984 8.51098 5.3984 8.74237V9.11516C5.3984 9.34655 5.32281 9.41725 5.09604 9.41725H4.72438ZM6.78423 9.41725C6.56376 9.41725 6.48816 9.34655 6.48816 9.11516V8.74237C6.48816 8.51098 6.56376 8.44028 6.78423 8.44028H7.15588C7.38265 8.44028 7.45824 8.51098 7.45824 8.74237V9.11516C7.45824 9.34655 7.38265 9.41725 7.15588 9.41725H6.78423ZM8.85037 9.41725C8.6236 9.41725 8.54801 9.34655 8.54801 9.11516V8.74237C8.54801 8.51098 8.6236 8.44028 8.85037 8.44028H9.21572C9.44249 8.44028 9.51809 8.51098 9.51809 8.74237V9.11516C9.51809 9.34655 9.44249 9.41725 9.21572 9.41725H8.85037ZM10.9102 9.41725C10.6834 9.41725 10.6078 9.34655 10.6078 9.11516V8.74237C10.6078 8.51098 10.6834 8.44028 10.9102 8.44028H11.2756C11.5023 8.44028 11.5779 8.51098 11.5779 8.74237V9.11516C11.5779 9.34655 11.5023 9.41725 11.2756 9.41725H10.9102ZM4.72438 11.4869C4.50391 11.4869 4.42832 11.4162 4.42832 11.1848V10.812C4.42832 10.5806 4.50391 10.5099 4.72438 10.5099H5.09604C5.32281 10.5099 5.3984 10.5806 5.3984 10.812V11.1848C5.3984 11.4162 5.32281 11.4869 5.09604 11.4869H4.72438ZM6.78423 11.4869C6.56376 11.4869 6.48816 11.4162 6.48816 11.1848V10.812C6.48816 10.5806 6.56376 10.5099 6.78423 10.5099H7.15588C7.38265 10.5099 7.45824 10.5806 7.45824 10.812V11.1848C7.45824 11.4162 7.38265 11.4869 7.15588 11.4869H6.78423ZM8.85037 11.4869C8.6236 11.4869 8.54801 11.4162 8.54801 11.1848V10.812C8.54801 10.5806 8.6236 10.5099 8.85037 10.5099H9.21572C9.44249 10.5099 9.51809 10.5806 9.51809 10.812V11.1848C9.51809 11.4162 9.44249 11.4869 9.21572 11.4869H8.85037Z" fill="#5A7DCE"/>
</svg>
