<svg width="20" height="20" viewBox="0 0 20 20" fill="none" xmlns="http://www.w3.org/2000/svg">
<path d="M3.48603 16C2.99488 16 2.62338 15.881 2.37151 15.6431C2.12384 15.4052 2 15.0505 2 14.5789V9.14286C2 8.67127 2.12384 8.31652 2.37151 8.0786C2.62338 7.83643 2.99488 7.71535 3.48603 7.71535H5.17985C5.671 7.71535 6.0425 7.83643 6.29437 8.0786C6.54624 8.31652 6.67218 8.67127 6.67218 9.14286V14.5789C6.67218 15.0505 6.54624 15.4052 6.29437 15.6431C6.0425 15.881 5.671 16 5.17985 16H3.48603ZM9.14679 16C8.65565 16 8.28414 15.881 8.03227 15.6431C7.7846 15.4052 7.66076 15.0505 7.66076 14.5789V7.28837C7.66076 6.81678 7.7846 6.46203 8.03227 6.22411C8.28414 5.98194 8.65565 5.86086 9.14679 5.86086H10.8469C11.3381 5.86086 11.7075 5.98194 11.9551 6.22411C12.207 6.46203 12.3329 6.81678 12.3329 7.28837V14.5789C12.3329 15.0505 12.207 15.4052 11.9551 15.6431C11.7075 15.881 11.3381 16 10.8469 16H9.14679ZM14.8076 16C14.3206 16 13.9512 15.881 13.6993 15.6431C13.4517 15.4052 13.3278 15.0505 13.3278 14.5789V5.42751C13.3278 4.95592 13.4517 4.60117 13.6993 4.36325C13.9512 4.12108 14.3206 4 14.8076 4H16.5077C16.9988 4 17.3703 4.12108 17.6222 4.36325C17.8741 4.60117 18 4.95592 18 5.42751V14.5789C18 15.0505 17.8741 15.4052 17.6222 15.6431C17.3703 15.881 16.9988 16 16.5077 16H14.8076ZM14.9776 15.0377H16.344C16.5874 15.0377 16.7574 14.9888 16.854 14.8911C16.9505 14.7977 16.9988 14.632 16.9988 14.3941V5.61232C16.9988 5.37015 16.9505 5.20234 16.854 5.10887C16.7574 5.01115 16.5874 4.96229 16.344 4.96229H14.9776C14.7383 4.96229 14.5704 5.01115 14.4738 5.10887C14.3773 5.20234 14.329 5.37015 14.329 5.61232V14.3941C14.329 14.632 14.3773 14.7977 14.4738 14.8911C14.5704 14.9888 14.7383 15.0377 14.9776 15.0377Z" fill="#01131E"/>
</svg>
