<svg width="12" height="12" viewBox="0 0 12 12" fill="none" xmlns="http://www.w3.org/2000/svg">
<g id="Icon SDK">
<path id="&#244;&#128;&#134;&#133;" d="M5.08717 10C4.83842 10 4.65186 9.90422 4.48306 9.68985L2.18212 6.77993C2.0533 6.6203 2 6.46978 2 6.31015C2 5.94527 2.26208 5.68073 2.62632 5.68073C2.84398 5.68073 2.995 5.76283 3.14159 5.94983L5.06941 8.45838L8.83176 2.33751C8.98279 2.09122 9.13381 2 9.38257 2C9.74237 2 10 2.25998 10 2.6203C10 2.76169 9.96002 2.90764 9.85342 3.07184L5.69572 9.67617C5.55358 9.8951 5.34925 10 5.08717 10Z" fill="white"/>
</g>
</svg>
