<svg width="16" height="18" viewBox="0 0 16 18" fill="none" xmlns="http://www.w3.org/2000/svg">
<path d="M1.3899 8.39797C0.824242 8.39797 0.412121 7.97776 0.412121 7.41211C0.412121 6.83837 0.824242 6.42625 1.3899 6.42625H1.97172L4.31515 6.60403L2.51313 4.89898L0.29899 2.68484C0.105051 2.49898 0 2.25655 0 1.9818C0 1.37574 0.428283 0.963623 1.03434 0.963623C1.30101 0.963623 1.54343 1.05251 1.72929 1.24645L3.93535 3.46867L5.64848 5.27069L5.47071 2.94342V2.44241C5.47071 1.87675 5.89091 1.47271 6.44848 1.47271C7.01414 1.47271 7.44242 1.88484 7.44242 2.44241V6.82221C7.44242 7.81615 6.86061 8.39797 5.86667 8.39797H1.3899ZM9.51111 16.5515C8.94545 16.5515 8.52525 16.1394 8.52525 15.5818V11.1374C8.52525 10.1434 9.09899 9.5616 10.101 9.5616H14.6343C15.2 9.5616 15.6121 9.9818 15.6121 10.5475C15.6121 11.1212 15.2 11.5333 14.6343 11.5333H13.996L11.6444 11.3555L13.4465 13.0606L15.701 15.3151C15.8949 15.501 16 15.7434 16 16.0101C16 16.6161 15.5717 17.0364 14.9657 17.0364C14.699 17.0364 14.4566 16.9394 14.2707 16.7535L12.0242 14.4909L10.3192 12.6889L10.497 15.0161V15.5818C10.497 16.1475 10.0768 16.5515 9.51111 16.5515Z" fill="white"/>
</svg>
