<svg width="24" height="24" viewBox="0 0 24 24" fill="none" xmlns="http://www.w3.org/2000/svg">
<path fill-rule="evenodd" clip-rule="evenodd" d="M3.5 3.3H9C9.11046 3.3 9.2 3.38954 9.2 3.5V9C9.2 9.11046 9.11046 9.2 9 9.2H3.5C3.38954 9.2 3.3 9.11046 3.3 9V3.5C3.3 3.38954 3.38954 3.3 3.5 3.3ZM1.5 3.5C1.5 2.39543 2.39543 1.5 3.5 1.5H9C10.1046 1.5 11 2.39543 11 3.5V9C11 10.1046 10.1046 11 9 11H3.5C2.39543 11 1.5 10.1046 1.5 9V3.5ZM3.5 14.8H9C9.11046 14.8 9.2 14.8895 9.2 15V20.5C9.2 20.6105 9.11046 20.7 9 20.7H3.5C3.38954 20.7 3.3 20.6105 3.3 20.5V15C3.3 14.8895 3.38954 14.8 3.5 14.8ZM1.5 15C1.5 13.8954 2.39543 13 3.5 13H9C10.1046 13 11 13.8954 11 15V20.5C11 21.6046 10.1046 22.5 9 22.5H3.5C2.39543 22.5 1.5 21.6046 1.5 20.5V15ZM20.5 3.3H15C14.8895 3.3 14.8 3.38954 14.8 3.5V9C14.8 9.11046 14.8895 9.2 15 9.2H20.5C20.6105 9.2 20.7 9.11046 20.7 9V3.5C20.7 3.38954 20.6105 3.3 20.5 3.3ZM15 1.5C13.8954 1.5 13 2.39543 13 3.5V9C13 10.1046 13.8954 11 15 11H20.5C21.6046 11 22.5 10.1046 22.5 9V3.5C22.5 2.39543 21.6046 1.5 20.5 1.5H15ZM15 14.8H20.5C20.6105 14.8 20.7 14.8895 20.7 15V20.5C20.7 20.6105 20.6105 20.7 20.5 20.7H15C14.8895 20.7 14.8 20.6105 14.8 20.5V15C14.8 14.8895 14.8895 14.8 15 14.8ZM13 15C13 13.8954 13.8954 13 15 13H20.5C21.6046 13 22.5 13.8954 22.5 15V20.5C22.5 21.6046 21.6046 22.5 20.5 22.5H15C13.8954 22.5 13 21.6046 13 20.5V15Z" fill="#01131E"/>
</svg>
