<svg width="20" height="20" viewBox="0 0 20 20" fill="none" xmlns="http://www.w3.org/2000/svg">
<path d="M4.16003 16.4564V3.5436C4.16003 3.0637 4.28619 2.68769 4.53851 2.41558C4.79083 2.13853 5.13963 2 5.5849 2H14.4012C14.8514 2 15.2027 2.13853 15.455 2.41558C15.7073 2.68769 15.8335 3.0637 15.8335 3.5436V16.4564C15.8335 16.9314 15.7073 17.3074 15.455 17.5844C15.2027 17.8615 14.8514 18 14.4012 18H5.5849C5.13963 18 4.79083 17.8615 4.53851 17.5844C4.28619 17.3074 4.16003 16.9314 4.16003 16.4564ZM7.36597 16.679H12.6795V14.3414C12.6795 14.1682 12.6251 14.0297 12.5162 13.9258C12.4124 13.8219 12.2639 13.7699 12.071 13.7699H7.94482C7.77166 13.7699 7.63066 13.8219 7.52182 13.9258C7.41792 14.0297 7.36597 14.1682 7.36597 14.3414V16.679ZM7.1656 6.09647C7.1656 6.30427 7.26455 6.40816 7.46245 6.40816H8.96152C9.16931 6.40816 9.27321 6.30427 9.27321 6.09647V4.67161C9.27321 4.46382 9.16931 4.35993 8.96152 4.35993H7.46245C7.26455 4.35993 7.1656 4.46382 7.1656 4.67161V6.09647ZM10.7723 6.09647C10.7723 6.30427 10.8737 6.40816 11.0765 6.40816H12.5682C12.776 6.40816 12.8799 6.30427 12.8799 6.09647V4.67161C12.8799 4.46382 12.776 4.35993 12.5682 4.35993H11.0765C10.8737 4.35993 10.7723 4.46382 10.7723 4.67161V6.09647ZM7.1656 9.1243C7.1656 9.33704 7.26455 9.44341 7.46245 9.44341H8.96152C9.16931 9.44341 9.27321 9.33704 9.27321 9.1243V7.70686C9.27321 7.49412 9.16931 7.38775 8.96152 7.38775H7.46245C7.26455 7.38775 7.1656 7.49412 7.1656 7.70686V9.1243ZM10.7723 9.1243C10.7723 9.33704 10.8737 9.44341 11.0765 9.44341H12.5682C12.776 9.44341 12.8799 9.33704 12.8799 9.1243V7.70686C12.8799 7.49412 12.776 7.38775 12.5682 7.38775H11.0765C10.8737 7.38775 10.7723 7.49412 10.7723 7.70686V9.1243ZM7.1656 12.1596C7.1656 12.3673 7.26455 12.4712 7.46245 12.4712H8.96152C9.16931 12.4712 9.27321 12.3673 9.27321 12.1596V10.7347C9.27321 10.522 9.16931 10.4156 8.96152 10.4156H7.46245C7.26455 10.4156 7.1656 10.522 7.1656 10.7347V12.1596ZM10.7723 12.1596C10.7723 12.3673 10.8737 12.4712 11.0765 12.4712H12.5682C12.776 12.4712 12.8799 12.3673 12.8799 12.1596V10.7347C12.8799 10.522 12.776 10.4156 12.5682 10.4156H11.0765C10.8737 10.4156 10.7723 10.522 10.7723 10.7347V12.1596Z" fill="#01131E"/>
</svg>
