<svg width="17" height="16" viewBox="0 0 17 16" fill="none" xmlns="http://www.w3.org/2000/svg">
<path d="M2.09998 8.27183C2.09998 4.26272 4.64761 1.6 8.49379 1.6C12.3462 1.6 14.9 4.26272 14.9 8.27183C14.9 10.0931 14.3496 12.1066 13.4345 13.6634C13.2613 13.9579 12.9336 14.0481 12.6182 13.9038C12.3214 14.3306 11.802 14.5049 11.2084 14.3366C10.4725 14.1142 10.1324 13.4951 10.3612 12.7738L11.2517 9.91875C11.4743 9.2095 12.105 8.88492 12.847 9.09529C13.1686 9.19146 13.4097 9.35976 13.5643 9.57615C13.6323 9.13737 13.6633 8.69859 13.6633 8.27183C13.6633 4.984 11.5918 2.79612 8.49379 2.79612C5.39582 2.79612 3.33051 4.984 3.33051 8.27183C3.33051 8.69859 3.36761 9.13737 3.42944 9.57615C3.58403 9.35375 3.82519 9.18545 4.14056 9.09529C4.88877 8.88492 5.51949 9.2095 5.7421 9.91875L6.63254 12.7738C6.85514 13.4891 6.52123 14.1142 5.7792 14.3366C5.19176 14.5049 4.67234 14.3306 4.36935 13.8978C4.06017 14.0481 3.73244 13.9579 3.5593 13.6634C2.64413 12.1066 2.09998 10.0931 2.09998 8.27183Z" fill="#5A7DCE"/>
</svg>
