<svg width="20" height="20" viewBox="0 0 20 20" fill="none" xmlns="http://www.w3.org/2000/svg">
<path fill-rule="evenodd" clip-rule="evenodd" d="M17.8883 9.0948L10.734 2.29358C10.5251 2.09786 10.264 2 10.0029 2C9.7418 2 9.4807 2.09786 9.27181 2.29358L3.8408 7.43119L2.1175 9.0948C1.96083 9.24159 1.96083 9.48624 2.1175 9.68196C2.22194 9.77982 2.32639 9.77982 2.43083 9.77982H3.8408V16.9725C3.8408 17.5107 4.31079 17.9511 4.88523 17.9511C4.88523 17.9511 7.44407 18 7.49629 18C7.7574 18 7.91406 17.8043 7.91406 17.6086V14.6238V14.5749C7.91406 13.4985 8.90626 12.6177 10.0029 12.6177C11.0996 12.6177 12.0918 13.4985 12.0918 14.5749V14.6238V17.5596C12.0918 17.6086 12.0918 17.6086 12.0918 17.6575C12.144 17.8532 12.3007 18 12.5095 18H15.0684C15.6428 18 16.1128 17.5596 16.1128 17.0214V9.73089H17.5228C17.6272 9.73089 17.7317 9.68196 17.8361 9.63303C18.045 9.48624 18.045 9.24159 17.8883 9.0948Z" fill="#01131E"/>
</svg>
