<svg width="20" height="20" viewBox="0 0 20 20" fill="none" xmlns="http://www.w3.org/2000/svg">
<path d="M2.98116 12C2.61829 12 2.28669 11.9115 1.98638 11.7346C1.68607 11.5513 1.44519 11.3081 1.26375 11.0047C1.08857 10.7014 1.00098 10.3665 1.00098 10C1.00098 9.63349 1.08857 9.29858 1.26375 8.99526C1.44519 8.69194 1.68607 8.45182 1.98638 8.27488C2.28669 8.09163 2.61829 8 2.98116 8C3.55051 8 4.026 8.19273 4.40765 8.5782C4.79555 8.96367 4.98951 9.4376 4.98951 10C4.98951 10.3665 4.89879 10.7014 4.71735 11.0047C4.53591 11.3081 4.29503 11.5513 3.99472 11.7346C3.69441 11.9115 3.35656 12 2.98116 12ZM10.001 12C9.6381 12 9.3065 11.9115 9.00619 11.7346C8.70588 11.5513 8.465 11.3081 8.28356 11.0047C8.10838 10.7014 8.02079 10.3665 8.02079 10C8.02079 9.63349 8.10838 9.29858 8.28356 8.99526C8.465 8.69194 8.70588 8.45182 9.00619 8.27488C9.3065 8.09163 9.6381 8 10.001 8C10.5515 8 11.0177 8.19273 11.3993 8.5782C11.7872 8.96367 11.9812 9.4376 11.9812 10C11.9812 10.3665 11.8904 10.7014 11.709 11.0047C11.5338 11.3081 11.2961 11.5513 10.9958 11.7346C10.6954 11.9115 10.3639 12 10.001 12ZM17.0114 12C16.6423 12 16.3044 11.9115 15.9978 11.7346C15.6975 11.5513 15.4567 11.3081 15.2752 11.0047C15.1 10.7014 15.0124 10.3665 15.0124 10C15.0124 9.63349 15.1 9.29858 15.2752 8.99526C15.4567 8.69194 15.6975 8.45182 15.9978 8.27488C16.3044 8.09163 16.6423 8 17.0114 8C17.5682 8 18.0375 8.19273 18.4191 8.5782C18.807 8.96367 19.001 9.4376 19.001 10C19.001 10.3665 18.9103 10.7014 18.7288 11.0047C18.5474 11.3081 18.3065 11.5513 18.0062 11.7346C17.7059 11.9115 17.3743 12 17.0114 12Z" fill="#01131E"/>
</svg>
