<svg width="24" height="24" viewBox="0 0 24 24" fill="none" xmlns="http://www.w3.org/2000/svg">
<path fill-rule="evenodd" clip-rule="evenodd" d="M6.28162 15.7055V14.4345H2.46958V15.7055H6.28162ZM4.223 20.7884C3.95669 20.7884 3.73982 20.5723 3.73982 20.3055V16.9764H1.83546C1.66934 16.9764 1.50455 16.9087 1.38458 16.7905C1.26659 16.6721 1.20001 16.5087 1.20001 16.341V13.8001C1.20001 13.6324 1.26659 13.4679 1.38458 13.3495C1.50456 13.2324 1.66935 13.1646 1.83546 13.1646H3.73982V3.48169C3.73982 3.21506 3.95669 3 4.223 3H4.5282C4.79385 3 5.01138 3.21506 5.01138 3.48169V13.1646H6.91706C7.0812 13.1646 7.24599 13.2324 7.36597 13.3495C7.48462 13.4679 7.55251 13.6313 7.55251 13.8001V16.341C7.55251 16.5087 7.48462 16.6732 7.36597 16.7905C7.24599 16.9087 7.0812 16.9764 6.91706 16.9764H5.01138V20.3055C5.01138 20.5723 4.79385 20.7884 4.5282 20.7884H4.223ZM13.905 9.35277V8.08178H10.0937V9.35277H13.905ZM11.8471 20.7884C11.5808 20.7884 11.3639 20.5723 11.3639 20.3055V10.6227H9.45887C9.29342 10.6227 9.12862 10.5559 9.00865 10.4378C8.89066 10.3194 8.82341 10.1549 8.82341 9.98715V7.44732C8.82341 7.27964 8.89064 7.1151 9.00865 6.99685C9.12862 6.87853 9.29342 6.8108 9.45887 6.8108H11.3639V3.48169C11.3639 3.21506 11.5808 3 11.8471 3H12.1523C12.4179 3 12.6355 3.21506 12.6355 3.48169V6.8108H14.5398C14.7053 6.8108 14.8701 6.87853 14.99 6.99685C15.1087 7.1151 15.1759 7.27857 15.1759 7.44732V9.98715C15.1759 10.156 15.1087 10.3194 14.99 10.4378C14.8701 10.5559 14.7053 10.6227 14.5398 10.6227H12.6355V20.3055C12.6355 20.5723 12.4179 20.7884 12.1523 20.7884H11.8471ZM21.5291 15.7055V14.4345H17.7177V15.7055H21.5291ZM19.4698 20.7884C19.2035 20.7884 18.9867 20.5723 18.9867 20.3055V16.9764H17.0823C16.9175 16.9764 16.752 16.9087 16.6321 16.7905C16.5141 16.6721 16.4468 16.5087 16.4468 16.341V13.8001C16.4468 13.6324 16.5141 13.4679 16.6321 13.3495C16.752 13.2324 16.9175 13.1646 17.0823 13.1646H18.9867V3.48169C18.9867 3.21506 19.2035 3 19.4698 3H19.775C20.042 3 20.2582 3.21506 20.2582 3.48169V13.1646H22.1646C22.3293 13.1646 22.4928 13.2324 22.6141 13.3495C22.7321 13.4679 22.8 13.6313 22.8 13.8001V16.341C22.8 16.5087 22.7321 16.6732 22.6141 16.7905C22.4928 16.9087 22.3293 16.9764 22.1646 16.9764H20.2582V20.3055C20.2582 20.5723 20.042 20.7884 19.775 20.7884H19.4698Z" fill="#01131E"/>
</svg>
