<svg width="20" height="20" viewBox="0 0 20 20" fill="none" xmlns="http://www.w3.org/2000/svg">
<path fill-rule="evenodd" clip-rule="evenodd" d="M17.125 10C17.125 13.935 13.935 17.125 10 17.125C6.06497 17.125 2.875 13.935 2.875 10C2.875 6.06497 6.06497 2.875 10 2.875C13.935 2.875 17.125 6.06497 17.125 10ZM18.75 10C18.75 14.8325 14.8325 18.75 10 18.75C5.16751 18.75 1.25 14.8325 1.25 10C1.25 5.16751 5.16751 1.25 10 1.25C14.8325 1.25 18.75 5.16751 18.75 10ZM9.14656 8.23858V14.3749H10.8484V8.23858H9.14656ZM9.35031 7.19588C9.53142 7.36367 9.74848 7.44757 10.0015 7.44757C10.2545 7.44757 10.4702 7.36367 10.6487 7.19588C10.8298 7.02542 10.9204 6.82168 10.9204 6.58464C10.9204 6.35026 10.8298 6.14918 10.6487 5.98139C10.4702 5.81094 10.2545 5.72571 10.0015 5.72571C9.74848 5.72571 9.53142 5.81094 9.35031 5.98139C9.17186 6.14918 9.08264 6.35026 9.08264 6.58464C9.08264 6.82168 9.17186 7.02542 9.35031 7.19588Z" fill="#01131E"/>
</svg>
