<svg width="16" height="16" viewBox="0 0 16 16" fill="none" xmlns="http://www.w3.org/2000/svg">
<path d="M1.01496 7.07264C0.429087 7.07264 0 6.65224 0 6.07522V1.60742C0 0.593509 0.594121 0 1.60908 0H6.18051C6.75812 0 7.17896 0.428645 7.17896 1.00567C7.17896 1.59093 6.74987 2.01133 6.18051 2.01133H5.58638L3.18515 1.82998L5.02527 3.56929L7.29448 5.82792C7.48427 6.01752 7.59979 6.26481 7.59979 6.54508C7.59979 7.16332 7.16245 7.59196 6.54358 7.59196C6.27127 7.59196 6.02372 7.49305 5.83393 7.29521L3.58123 5.02834L1.83187 3.19011L2.01341 5.56414V6.07522C2.01341 6.65224 1.58432 7.07264 1.01496 7.07264ZM9.82775 16C9.25013 16 8.82929 15.5796 8.82929 14.9943C8.82929 14.4173 9.25013 13.9969 9.82775 13.9969H10.4219L12.8149 14.17L10.9747 12.4389L8.70552 10.1803C8.51573 9.98248 8.40846 9.73519 8.40846 9.46316C8.40846 8.84493 8.8458 8.41628 9.46467 8.41628C9.72873 8.41628 9.98453 8.5152 10.1743 8.71303L12.427 10.9799L14.1681 12.8099L13.9948 10.4441V9.93302C13.9948 9.34776 14.4157 8.9356 14.9933 8.9356C15.5709 8.9356 16 9.356 16 9.93302V14.3926C16 15.4147 15.4141 16 14.3909 16H9.82775Z" fill="white"/>
</svg>
