<svg width="20" height="20" viewBox="0 0 20 20" fill="none" xmlns="http://www.w3.org/2000/svg">
<path d="M2.55005 11.4771C2.55005 11.1343 2.62243 10.7838 2.76719 10.4257C2.91576 10.0676 3.14814 9.72476 3.46433 9.39714C3.21672 9.12286 3.03576 8.83143 2.92148 8.52286C2.811 8.21048 2.75576 7.8981 2.75576 7.58571C2.75576 7.12857 2.86053 6.69619 3.07005 6.28857C3.28338 5.88095 3.5691 5.54 3.92719 5.26571C4.28529 4.98762 4.68338 4.8181 5.12148 4.75714C5.14433 4.42952 5.24529 4.12667 5.42433 3.84857C5.60338 3.57048 5.83386 3.33048 6.11576 3.12857C6.40148 2.92667 6.71576 2.77238 7.05862 2.66571C7.40148 2.55524 7.75005 2.5 8.10433 2.5C8.46243 2.5 8.80338 2.55905 9.12719 2.67714C9.45481 2.79143 9.74624 2.97429 10.0015 3.22571C10.2529 2.97429 10.5405 2.79143 10.8643 2.67714C11.192 2.55905 11.5367 2.5 11.8986 2.5C12.2491 2.5 12.5958 2.55524 12.9386 2.66571C13.2815 2.77238 13.5939 2.92667 13.8758 3.12857C14.1615 3.33048 14.3939 3.57048 14.5729 3.84857C14.752 4.12667 14.8529 4.42952 14.8758 4.75714C15.3177 4.8181 15.7158 4.98762 16.07 5.26571C16.4281 5.54 16.712 5.88095 16.9215 6.28857C17.131 6.69619 17.2358 7.12857 17.2358 7.58571C17.2358 7.8981 17.1805 8.21048 17.07 8.52286C16.9596 8.83143 16.7805 9.12286 16.5329 9.39714C16.8491 9.72476 17.0796 10.0676 17.2243 10.4257C17.3729 10.7838 17.4472 11.1343 17.4472 11.4771C17.4472 11.9495 17.3481 12.3648 17.15 12.7229C16.9558 13.0771 16.6834 13.3571 16.3329 13.5629C15.9862 13.7648 15.5862 13.8657 15.1329 13.8657C14.9234 13.8657 14.7043 13.839 14.4758 13.7857C14.251 13.7286 14.0205 13.6429 13.7843 13.5286C13.6624 13.6352 13.491 13.7476 13.27 13.8657C13.0491 13.98 12.792 14.0829 12.4986 14.1743C12.2091 14.2657 11.8986 14.3171 11.5672 14.3286C11.6281 14.0314 11.7291 13.7057 11.87 13.3514C12.0148 12.9971 12.1672 12.6543 12.3272 12.3229C12.491 11.9914 12.6396 11.7019 12.7729 11.4543C12.3234 11.42 11.9653 11.2924 11.6986 11.0714C11.432 10.8505 11.2396 10.5781 11.1215 10.2543C10.9653 10.3648 10.7939 10.4486 10.6072 10.5057C10.4243 10.5629 10.2224 10.5914 10.0015 10.5914C9.77672 10.5914 9.571 10.5629 9.38433 10.5057C9.20148 10.4486 9.03195 10.3648 8.87576 10.2543C8.75767 10.5781 8.56529 10.8505 8.29862 11.0714C8.03195 11.2924 7.67386 11.42 7.22433 11.4543C7.35767 11.7019 7.50624 11.9914 7.67005 12.3229C7.83386 12.6543 7.98433 12.9971 8.12148 13.3514C8.26243 13.7057 8.36529 14.0314 8.43005 14.3286C8.09481 14.3171 7.78053 14.2657 7.48719 14.1743C7.19767 14.0829 6.94243 13.98 6.72148 13.8657C6.50433 13.7476 6.33481 13.6352 6.21291 13.5286C5.97291 13.6429 5.74053 13.7286 5.51576 13.7857C5.291 13.839 5.07576 13.8657 4.87005 13.8657C4.41291 13.8657 4.011 13.7648 3.66433 13.5629C3.31767 13.3571 3.04529 13.0771 2.84719 12.7229C2.6491 12.3648 2.55005 11.9495 2.55005 11.4771ZM10.0015 17.5C9.71957 17.5 9.49291 17.4562 9.32148 17.3686C9.15386 17.2848 9.07005 17.1705 9.07005 17.0257C9.07005 16.9076 9.07767 16.7248 9.09291 16.4771C9.11195 16.2295 9.1291 15.9571 9.14433 15.66C9.16338 15.3667 9.17291 15.0886 9.17291 14.8257C9.17291 14.62 9.13862 14.3838 9.07005 14.1171C9.00529 13.8543 8.91767 13.5762 8.80719 13.2829C8.69672 12.9895 8.571 12.6905 8.43005 12.3857C8.2891 12.081 8.14243 11.7857 7.99005 11.5C7.84148 11.2105 7.69862 10.94 7.56148 10.6886L8.20148 9.94571C8.411 10.3076 8.59195 10.6276 8.74433 10.9057C8.89672 11.18 9.03386 11.439 9.15576 11.6829C9.27767 11.9229 9.39767 12.1743 9.51576 12.4371L9.50433 9.80857L10.4586 9.85429L10.4815 12.4314C10.5996 12.1686 10.7177 11.919 10.8358 11.6829C10.9577 11.4429 11.0967 11.1762 11.2529 10.8829C11.4129 10.5895 11.6091 10.2295 11.8415 9.80286L12.63 10.2371C12.451 10.5762 12.2739 10.919 12.0986 11.2657C11.9272 11.6124 11.7634 11.9533 11.6072 12.2886C11.4548 12.62 11.3196 12.94 11.2015 13.2486C11.0872 13.5571 10.9958 13.8448 10.9272 14.1114C10.8586 14.3819 10.8243 14.62 10.8243 14.8257C10.8243 15.0886 10.832 15.3667 10.8472 15.66C10.8662 15.9571 10.8834 16.2295 10.8986 16.4771C10.9177 16.7248 10.9272 16.9076 10.9272 17.0257C10.9272 17.1705 10.8415 17.2848 10.67 17.3686C10.5024 17.4562 10.2796 17.5 10.0015 17.5Z" fill="#01131E"/>
</svg>
