<svg width="28" height="27" viewBox="0 0 28 27" fill="none" xmlns="http://www.w3.org/2000/svg">
<path d="M15.9942 24C14.3532 24 12.8089 23.6864 11.3614 23.0591C9.91388 22.4395 8.63667 21.576 7.52975 20.4685C6.43058 19.3611 5.56749 18.0833 4.94049 16.635C4.3135 15.1868 4 13.6418 4 12C4 10.3582 4.3135 8.81317 4.94049 7.36496C5.56749 5.91675 6.43058 4.64279 7.52975 3.54308C8.63667 2.43562 9.91001 1.56825 11.3498 0.940949C12.7973 0.31365 14.3416 0 15.9826 0C17.6313 0 19.1795 0.31365 20.627 0.940949C22.0745 1.56825 23.3517 2.43562 24.4586 3.54308C25.5656 4.64279 26.4325 5.91675 27.0595 7.36496C27.6865 8.81317 28 10.3582 28 12C28 13.6418 27.6865 15.1868 27.0595 16.635C26.4325 18.0833 25.5656 19.3611 24.4586 20.4685C23.3517 21.576 22.0745 22.4395 20.627 23.0591C19.1795 23.6864 17.6352 24 15.9942 24ZM15.9942 21.6302C17.3333 21.6302 18.5835 21.3824 19.7446 20.8867C20.9057 20.3911 21.9274 19.7018 22.8099 18.819C23.6923 17.9361 24.3812 16.9138 24.8766 15.7522C25.372 14.5905 25.6197 13.3398 25.6197 12C25.6197 10.668 25.372 9.4211 24.8766 8.25944C24.3812 7.09003 23.6923 6.06389 22.8099 5.18103C21.9274 4.29816 20.9018 3.60891 19.7329 3.11326C18.5718 2.61762 17.3217 2.3698 15.9826 2.3698C14.6512 2.3698 13.4011 2.61762 12.2322 3.11326C11.0711 3.60891 10.0532 4.29816 9.17852 5.18103C8.30382 6.06389 7.61877 7.09003 7.12337 8.25944C6.62796 9.4211 6.38026 10.668 6.38026 12C6.38026 13.3398 6.62796 14.5905 7.12337 15.7522C7.61877 16.9138 8.30382 17.9361 9.17852 18.819C10.061 19.7018 11.0827 20.3911 12.2438 20.8867C13.4127 21.3824 14.6628 21.6302 15.9942 21.6302ZM23.7388 19.667C23.0034 20.3408 22.1751 20.9061 21.254 21.363C20.3328 21.8277 19.4117 22.1801 18.4906 22.4201C17.5694 22.6602 16.7373 22.7803 15.9942 22.7803C15.2588 22.7803 14.4267 22.6602 13.4978 22.4201C12.5767 22.1801 11.6555 21.8277 10.7344 21.363C9.81326 20.9061 8.98887 20.3408 8.26125 19.667L8.30769 19.4579C8.55539 18.8925 9.02758 18.3466 9.72424 17.8199C10.4286 17.2856 11.3149 16.8519 12.3832 16.5189C13.4514 16.1781 14.6551 16.0077 15.9942 16.0077C17.3488 16.0077 18.5564 16.1781 19.6168 16.5189C20.6851 16.8519 21.5675 17.2856 22.2642 17.8199C22.9686 18.3466 23.4446 18.8964 23.6923 19.4695L23.7388 19.667ZM15.9942 14.091C15.2511 14.0833 14.5776 13.8896 13.9739 13.5102C13.3701 13.1229 12.8902 12.6002 12.5341 11.9419C12.1858 11.2759 12.0077 10.5286 12 9.6999C11.9923 8.92546 12.1664 8.21297 12.5225 7.56244C12.8786 6.90416 13.3585 6.37754 13.9623 5.98257C14.5738 5.58761 15.2511 5.39013 15.9942 5.39013C16.745 5.39013 17.4185 5.58761 18.0145 5.98257C18.6183 6.37754 19.0982 6.90416 19.4543 7.56244C19.8181 8.21297 20 8.92546 20 9.6999C20 10.5286 19.822 11.2798 19.4659 11.9535C19.1098 12.6196 18.6299 13.1462 18.0261 13.5334C17.4224 13.9129 16.745 14.0987 15.9942 14.091Z" fill="#4D5A62"/>
<circle cx="7" cy="20" r="7" fill="#E6EDFD"/>
<path d="M5.01869 19.4394C4.92523 19.4394 4.84579 19.4108 4.78037 19.3535C4.71495 19.2962 4.68224 19.2294 4.68224 19.153C4.68224 19.0712 4.71495 19.0016 4.78037 18.9444C4.84579 18.8871 4.92523 18.8584 5.01869 18.8584H8.98598C9.07632 18.8584 9.15421 18.8871 9.21963 18.9444C9.28505 19.0016 9.31776 19.0712 9.31776 19.153C9.31776 19.2294 9.28505 19.2962 9.21963 19.3535C9.15421 19.4108 9.07632 19.4394 8.98598 19.4394H5.01869ZM5.01869 20.8879C4.92212 20.8879 4.84112 20.8592 4.7757 20.802C4.7134 20.7447 4.68224 20.6765 4.68224 20.5974C4.68224 20.5183 4.7134 20.4514 4.7757 20.3969C4.84112 20.3423 4.92212 20.3151 5.01869 20.3151H8.98598C9.07944 20.3151 9.15732 20.3423 9.21963 20.3969C9.28505 20.4514 9.31776 20.5183 9.31776 20.5974C9.31776 20.6765 9.28505 20.7447 9.21963 20.802C9.15732 20.8592 9.07944 20.8879 8.98598 20.8879H5.01869ZM5.01869 22.4141C4.92523 22.4141 4.84579 22.3854 4.78037 22.3282C4.71495 22.2709 4.68224 22.204 4.68224 22.1277C4.68224 22.0458 4.7134 21.9776 4.7757 21.9231C4.84112 21.8685 4.92212 21.8412 5.01869 21.8412H7.0514C7.14174 21.8412 7.21807 21.8685 7.28037 21.9231C7.34579 21.9776 7.3785 22.0458 7.3785 22.1277C7.3785 22.204 7.34579 22.2709 7.28037 22.3282C7.21495 22.3854 7.13863 22.4141 7.0514 22.4141H5.01869ZM4.51869 25C4.02336 25 3.64642 24.8854 3.38785 24.6563C3.12928 24.4272 3 24.093 3 23.6538V17.4632C3 17.0295 3.12461 16.6967 3.37383 16.4648C3.62617 16.2302 3.99377 16.1129 4.47664 16.1129H4.58411C4.57477 16.1375 4.56854 16.1648 4.56542 16.1948C4.56231 16.222 4.56075 16.2507 4.56075 16.2807V16.6612C4.56075 16.7567 4.57165 16.8358 4.59346 16.8985H4.5C4.30062 16.8985 4.14953 16.9504 4.04673 17.054C3.94704 17.1577 3.8972 17.2968 3.8972 17.4714V23.6457C3.8972 23.8284 3.95327 23.9689 4.06542 24.0671C4.17757 24.1653 4.34268 24.2144 4.56075 24.2144H9.43925C9.65732 24.2144 9.82243 24.1653 9.93458 24.0671C10.0467 23.9689 10.1028 23.8284 10.1028 23.6457V17.4714C10.1028 17.2968 10.0514 17.1577 9.9486 17.054C9.84891 16.9504 9.70093 16.8985 9.50467 16.8985H9.40187C9.42679 16.8358 9.43925 16.7567 9.43925 16.6612V16.2807C9.43925 16.2507 9.4377 16.222 9.43458 16.1948C9.43146 16.1648 9.42523 16.1375 9.41589 16.1129H9.52336C10.0062 16.1129 10.3723 16.2302 10.6215 16.4648C10.8738 16.6967 11 17.0295 11 17.4632V23.6538C11 24.093 10.8707 24.4272 10.6121 24.6563C10.3536 24.8854 9.97508 25 9.47664 25H4.51869ZM5.56075 17.1318C5.41745 17.1318 5.3053 17.0949 5.2243 17.0213C5.14642 16.9476 5.10748 16.844 5.10748 16.7103V16.2807C5.10748 16.147 5.14642 16.0434 5.2243 15.9697C5.3053 15.8961 5.41745 15.8592 5.56075 15.8592H5.95794C5.97352 15.6219 6.081 15.4201 6.28037 15.2537C6.47975 15.0846 6.71963 15 7 15C7.27726 15 7.51558 15.0846 7.71495 15.2537C7.91745 15.4201 8.02648 15.6219 8.04206 15.8592H8.43925C8.58255 15.8592 8.69315 15.8961 8.77103 15.9697C8.85203 16.0434 8.89252 16.147 8.89252 16.2807V16.7103C8.89252 16.844 8.85203 16.9476 8.77103 17.0213C8.69315 17.0949 8.58255 17.1318 8.43925 17.1318H5.56075ZM7 16.2561C7.11526 16.2561 7.21184 16.2207 7.28972 16.1498C7.37072 16.0761 7.41122 15.9915 7.41122 15.8961C7.41122 15.7951 7.37072 15.7092 7.28972 15.6383C7.21184 15.5674 7.11526 15.5319 7 15.5319C6.88474 15.5319 6.7866 15.5674 6.70561 15.6383C6.62773 15.7092 6.58879 15.7951 6.58879 15.8961C6.58879 15.9915 6.62773 16.0761 6.70561 16.1498C6.7866 16.2207 6.88474 16.2561 7 16.2561Z" fill="#4D5A62"/>
</svg>
