<svg width="16" height="16" viewBox="0 0 16 16" fill="none" xmlns="http://www.w3.org/2000/svg">
<path d="M3.0595 14.678C2.7524 14.678 2.49904 14.5654 2.29942 14.3402C2.09981 14.115 2 13.813 2 13.4343V2.48608C2 2.10733 2.09981 1.8079 2.29942 1.58781C2.49904 1.3626 2.7524 1.25 3.0595 1.25C3.22329 1.25 3.3794 1.27815 3.52783 1.33445C3.68138 1.39075 3.84517 1.46753 4.01919 1.56478L13.071 6.80854C13.4037 6.99792 13.6417 7.17706 13.785 7.34597C13.9283 7.51488 14 7.71961 14 7.96017C14 8.20074 13.9283 8.40547 13.785 8.57438C13.6417 8.74328 13.4037 8.92498 13.071 9.11948L4.01919 14.3556C3.84517 14.4579 3.68138 14.5373 3.52783 14.5936C3.3794 14.6499 3.22329 14.678 3.0595 14.678Z" fill="#01131E"/>
</svg>
