<svg width="21" height="20" viewBox="0 0 21 20" fill="none" xmlns="http://www.w3.org/2000/svg">
<path fill-rule="evenodd" clip-rule="evenodd" d="M10.87 15.0179C11.0082 15.1561 11.1884 15.2252 11.4105 15.2252C12.3287 15.2252 13.1902 15.0549 13.9949 14.7143C14.116 14.6619 14.235 14.6066 14.3518 14.5484L17.4736 17.679C17.5828 17.7885 17.7044 17.8681 17.8384 17.9179C17.9774 17.9726 18.1213 18 18.2702 18C18.4836 18 18.6722 17.9502 18.8359 17.8507C18.9997 17.7561 19.1288 17.6242 19.2231 17.455C19.3174 17.2858 19.3645 17.0967 19.3645 16.8877C19.3645 16.7384 19.3372 16.5965 19.2826 16.4621C19.233 16.3278 19.1561 16.2108 19.0518 16.1113L16.1793 13.218C16.7509 12.6326 17.1977 11.9565 17.5196 11.1895C17.8602 10.3849 18.0305 9.52342 18.0305 8.60521C18.0305 7.69193 17.8602 6.83542 17.5196 6.03569C17.1839 5.23596 16.7125 4.53496 16.1053 3.93269C15.4981 3.32548 14.7946 2.85157 13.9949 2.51094C13.1902 2.17031 12.3287 2 11.4105 2C10.4973 2 9.64075 2.17031 8.84102 2.51094C8.04128 2.84663 7.34028 3.31561 6.73801 3.91788C6.13575 4.52015 5.6643 5.22115 5.32367 6.02088C4.97811 6.82062 4.80533 7.67465 4.80533 8.58299C4.80533 8.77552 4.8152 8.96558 4.83495 9.15317C4.85469 9.33583 4.88184 9.50861 4.9164 9.67152L3.14662 7.88693C3.07751 7.82275 3.00346 7.77338 2.92447 7.73883C2.84055 7.70427 2.75169 7.68699 2.65789 7.68699C2.45056 7.68699 2.27777 7.75611 2.13955 7.89433C1.99639 8.02762 1.9248 8.193 1.9248 8.39046C1.9248 8.60274 1.99392 8.77305 2.13214 8.9014L5.22741 11.9448C5.37551 12.0929 5.55323 12.167 5.76056 12.167C5.8593 12.167 5.95309 12.1497 6.04195 12.1151C6.13081 12.0806 6.21473 12.0238 6.29372 11.9448L9.35936 8.9014C9.49265 8.77305 9.5593 8.60521 9.5593 8.39787C9.5593 8.19547 9.49018 8.02762 9.35196 7.89433C9.21373 7.75611 9.04342 7.68699 8.84102 7.68699C8.74722 7.68699 8.66083 7.70427 8.58185 7.73883C8.49792 7.77338 8.4214 7.82522 8.35229 7.89433L6.36036 9.90107C6.32087 9.70854 6.29125 9.50367 6.2715 9.28646C6.24682 9.06431 6.23448 8.82982 6.23448 8.58299C6.23448 7.87212 6.36777 7.20567 6.63435 6.58366C6.90092 5.96164 7.27117 5.41615 7.74509 4.94717C8.21407 4.47819 8.76203 4.11288 9.38898 3.85123C10.0159 3.58466 10.6898 3.45137 11.4105 3.45137C12.1263 3.45137 12.7977 3.58466 13.4247 3.85123C14.0467 4.11781 14.5971 4.48806 15.076 4.96198C15.5499 5.43095 15.9201 5.97892 16.1867 6.60587C16.4484 7.22789 16.5792 7.89433 16.5792 8.60521C16.5792 9.32595 16.4484 9.9998 16.1867 10.6268C15.9201 11.2488 15.5499 11.7967 15.076 12.2706C14.5971 12.7396 14.0467 13.1074 13.4247 13.374C12.7977 13.6406 12.1263 13.7739 11.4105 13.7739C11.1884 13.7739 11.0082 13.838 10.87 13.9664C10.7317 14.0947 10.6626 14.2675 10.6626 14.4847C10.6626 14.697 10.7317 14.8747 10.87 15.0179Z" fill="#5A7DCE"/>
</svg>
