<svg width="20" height="21" viewBox="0 0 20 21" fill="none" xmlns="http://www.w3.org/2000/svg">
<path d="M9.90417 3L5.18257 3C5.18257 3 3.75 3 3.75 4.1121C3.75 5.22419 5.18257 5.22419 5.18257 5.22419L9.90417 5.22419C12.3818 5.22419 14.0368 6.88742 14.0368 9.38717C14.0368 11.8377 12.4503 13.4714 10.0511 13.5403L10.0511 12.1527C10.0511 11.3653 9.43411 11.139 8.78777 11.6114L5.47776 13.993C4.94894 14.3768 4.94894 14.9673 5.47776 15.361L8.77798 17.7525C9.42431 18.2249 10.0511 18.0084 10.0511 17.2112L10.0511 15.7645C13.7724 15.6956 16.25 13.1565 16.25 9.38718C16.25 5.55881 13.7038 3 9.90417 3Z" fill="#01131E"/>
</svg>
