<svg width="20" height="20" viewBox="0 0 20 20" fill="none" xmlns="http://www.w3.org/2000/svg">
<path fill-rule="evenodd" clip-rule="evenodd" d="M8.51027 6.51532V11.1286C8.51027 11.276 8.81349 11.374 8.96535 11.276L12.396 9.01868C12.5474 8.91999 12.5474 8.72397 12.396 8.62601L8.96535 6.36798C8.89455 6.34064 8.82814 6.32855 8.76857 6.32855C8.61525 6.32855 8.51027 6.40912 8.51027 6.51532ZM4.06983 15.546C2.95947 15.546 2 14.6627 2 13.5333V4.0127C2 2.93265 2.9082 2 4.06983 2H15.9288C17.0899 2 18.0484 2.93265 17.9981 4.06131V13.5333C17.9981 14.6133 17.0899 15.5459 15.9288 15.5459L4.06983 15.546ZM2.55566 18C2.30322 18 2.15234 17.8033 2.15234 17.6073C2.15234 17.4106 2.354 17.2147 2.55566 17.2147H17.3921C17.6446 17.2147 17.7964 17.4106 17.7964 17.6073C17.7964 17.8033 17.5943 18 17.3921 18H2.55566Z" fill="#01131E"/>
</svg>
