<svg width="16" height="16" viewBox="0 0 16 16" fill="none" xmlns="http://www.w3.org/2000/svg">
<path fill-rule="evenodd" clip-rule="evenodd" d="M15.2001 9.89674C15.2001 10.4711 14.9985 10.7365 14.4142 10.7365H13.3646V11.8778C13.3646 12.4521 13.0663 12.72 12.4829 12.72H10.3121C9.72781 12.72 9.43985 12.4521 9.43985 11.8778V9.01499H6.56173V11.8778C6.56173 12.4521 6.27377 12.72 5.68945 12.72H3.50086C2.91654 12.72 2.62858 12.4521 2.62858 11.8778V10.7444H1.65554C1.07122 10.7444 0.800049 10.4429 0.800049 9.86852C0.806802 9.86852 0.800049 6.32039 0.800049 6.32039C0.800049 5.74603 1.07072 5.56927 1.65554 5.56927H2.62858V4.21755C2.62858 3.6432 2.91653 3.35999 3.50086 3.35999H5.68945C6.27376 3.35999 6.56173 3.6432 6.56173 4.21755V7.45499H9.43985V4.21755C9.43985 3.6432 9.72781 3.35999 10.3121 3.35999H12.4829C13.0673 3.35999 13.3646 3.6432 13.3646 4.21755V5.56382H14.4142C14.9985 5.56382 15.2001 5.82872 15.2001 6.40604C15.2001 7.85654 15.2001 8.51051 15.2001 9.89674Z" fill="white"/>
</svg>
